<?xml version="1.0" standalone="no"?>
<!DOCTYPE svg PUBLIC "-//W3C//DTD SVG 20010904//EN"
 "http://www.w3.org/TR/2001/REC-SVG-20010904/DTD/svg10.dtd">
<svg version="1.0" xmlns="http://www.w3.org/2000/svg"
 width="175.000000pt" height="175.000000pt" viewBox="0 0 175.000000 175.000000"
 preserveAspectRatio="xMidYMid meet">

<g transform="translate(0.000000,175.000000) scale(0.100000,-0.100000)"
fill="#000000" stroke="none">
<path d="M860 1620 c0 -5 7 -10 15 -10 8 0 15 5 15 10 0 6 -7 10 -15 10 -8 0
-15 -4 -15 -10z"/>
<path d="M930 1620 c0 -5 7 -10 15 -10 8 0 15 5 15 10 0 6 -7 10 -15 10 -8 0
-15 -4 -15 -10z"/>
<path d="M790 1610 c0 -5 9 -10 21 -10 11 0 17 5 14 10 -3 6 -13 10 -21 10 -8
0 -14 -4 -14 -10z"/>
<path d="M1000 1610 c0 -5 7 -10 15 -10 8 0 15 5 15 10 0 6 -7 10 -15 10 -8 0
-15 -4 -15 -10z"/>
<path d="M737 1603 c-12 -11 -8 -23 8 -23 8 0 15 7 15 15 0 16 -12 20 -23 8z"/>
<path d="M1070 1595 c0 -9 5 -15 11 -13 6 2 11 8 11 13 0 5 -5 11 -11 13 -6 2
-11 -4 -11 -13z"/>
<path d="M670 1580 c-10 -6 -11 -13 -5 -19 13 -13 36 1 27 16 -5 8 -13 9 -22
3z"/>
<path d="M1130 1570 c0 -5 7 -10 15 -10 8 0 15 5 15 10 0 6 -7 10 -15 10 -8 0
-15 -4 -15 -10z"/>
<path d="M1443 1573 c-18 -7 -16 -42 3 -50 8 -3 23 1 31 10 13 13 14 19 3 31
-13 17 -17 18 -37 9z"/>
<path d="M607 1544 c-11 -11 3 -24 18 -18 8 4 12 10 9 15 -6 11 -18 12 -27 3z"/>
<path d="M1190 1541 c0 -5 7 -11 15 -15 9 -3 15 0 15 9 0 8 -7 15 -15 15 -8 0
-15 -4 -15 -9z"/>
<path d="M551 1506 c-14 -17 -1 -28 19 -16 11 7 12 12 4 20 -8 8 -14 7 -23 -4z"/>
<path d="M1252 1504 c3 -17 21 -21 26 -6 1 5 -4 12 -13 16 -11 4 -15 1 -13
-10z"/>
<path d="M495 1461 c-7 -12 12 -24 25 -16 11 7 4 25 -10 25 -5 0 -11 -4 -15
-9z"/>
<path d="M455 1409 c-10 -15 3 -25 16 -12 7 7 7 13 1 17 -6 3 -14 1 -17 -5z"/>
<path d="M192 1391 c-21 -13 -10 -46 16 -49 27 -4 40 22 22 43 -14 17 -20 18
-38 6z"/>
<path d="M414 1356 c-8 -22 3 -33 18 -18 9 9 9 15 0 24 -9 9 -13 7 -18 -6z"/>
<path d="M1395 1360 c-4 -6 -3 -16 3 -22 13 -13 23 4 13 21 -7 10 -10 10 -16
1z"/>
<path d="M833 1317 c-4 -8 -16 -17 -26 -20 -10 -4 -15 -12 -12 -18 5 -7 12 -5
23 5 12 10 22 12 35 5 25 -15 22 -38 -5 -31 -14 3 -19 2 -14 -6 4 -7 1 -12 -8
-12 -8 0 -29 -15 -46 -34 -22 -23 -38 -32 -52 -28 -20 5 -38 -12 -38 -37 0 -7
6 -11 14 -8 10 4 13 1 9 -9 -3 -7 0 -14 6 -14 6 0 10 -6 8 -12 -1 -9 10 -12
36 -10 37 3 94 -20 110 -45 4 -6 23 -17 42 -23 34 -11 46 -32 25 -45 -5 -3
-10 -13 -10 -22 0 -9 -10 -26 -22 -38 -51 -50 -78 -84 -78 -99 0 -9 -4 -16 -9
-16 -13 0 -31 57 -31 95 0 18 -7 38 -16 46 -27 22 -46 70 -39 96 5 21 -1 32
-29 58 -29 26 -36 40 -37 71 l-1 39 -24 -50 c-63 -131 -1 -308 130 -374 25
-12 59 -21 74 -20 15 2 33 0 40 -5 22 -13 125 5 175 32 26 14 58 39 70 56 37
49 43 63 18 41 l-22 -19 5 24 c29 140 22 182 -29 172 -52 -10 -89 62 -60 118
18 34 43 42 68 21 13 -11 20 -12 29 -3 8 8 1 15 -26 28 -35 17 -37 17 -51 -2
-13 -16 -16 -17 -24 -4 -6 8 -6 16 -2 18 13 4 1 42 -20 63 -30 30 -65 34 -90
10 -23 -21 -39 -20 -39 5 0 18 -46 19 -57 1z m37 -7 c0 -5 -7 -10 -15 -10 -8
0 -15 5 -15 10 0 6 7 10 15 10 8 0 15 -4 15 -10z"/>
<path d="M1425 1300 c-4 -6 -3 -16 3 -22 6 -6 12 -6 17 2 4 6 3 16 -3 22 -6 6
-12 6 -17 -2z"/>
<path d="M380 1285 c0 -8 4 -15 9 -15 5 0 11 7 15 15 3 9 0 15 -9 15 -8 0 -15
-7 -15 -15z"/>
<path d="M355 1229 c-4 -6 -5 -13 -2 -16 7 -7 27 6 27 18 0 12 -17 12 -25 -2z"/>
<path d="M1450 1225 c0 -8 7 -15 15 -15 9 0 12 6 9 15 -4 8 -10 15 -15 15 -5
0 -9 -7 -9 -15z"/>
<path d="M1477 1174 c-4 -4 -7 -14 -7 -23 0 -11 3 -12 11 -4 6 6 10 16 7 23
-2 6 -7 8 -11 4z"/>
<path d="M337 1163 c-12 -11 -8 -23 8 -23 8 0 15 7 15 15 0 16 -12 20 -23 8z"/>
<path d="M325 1100 c-4 -6 -3 -16 3 -22 6 -6 12 -6 17 2 4 6 3 16 -3 22 -6 6
-12 6 -17 -2z"/>
<path d="M1480 1095 c0 -8 5 -15 10 -15 6 0 10 7 10 15 0 8 -4 15 -10 15 -5 0
-10 -7 -10 -15z"/>
<path d="M320 1026 c0 -9 7 -16 16 -16 17 0 14 22 -4 28 -7 2 -12 -3 -12 -12z"/>
<path d="M1480 1025 c0 -8 5 -15 10 -15 6 0 10 7 10 15 0 8 -4 15 -10 15 -5 0
-10 -7 -10 -15z"/>
<path d="M302 974 c-26 -18 -30 -74 -6 -98 37 -38 96 -27 114 20 25 66 -49
120 -108 78z"/>
<path d="M1477 963 c-12 -11 -8 -23 8 -23 8 0 15 7 15 15 0 16 -12 20 -23 8z"/>
<path d="M1460 885 c0 -8 4 -15 9 -15 5 0 11 7 15 15 3 9 0 15 -9 15 -8 0 -15
-7 -15 -15z"/>
<path d="M367 833 c-3 -5 -2 -15 2 -22 7 -10 10 -10 16 -1 4 6 3 16 -3 22 -5
5 -12 6 -15 1z"/>
<path d="M1437 826 c-3 -8 1 -17 9 -20 9 -4 14 1 14 14 0 23 -15 27 -23 6z"/>
<path d="M395 770 c-4 -6 -3 -16 3 -22 6 -6 12 -6 17 2 4 6 3 16 -3 22 -6 6
-12 6 -17 -2z"/>
<path d="M1407 765 c-6 -13 1 -25 14 -25 14 0 18 28 4 34 -7 2 -16 -1 -18 -9z"/>
<path d="M432 706 c1 -10 8 -17 13 -17 15 1 12 24 -3 29 -9 3 -13 -2 -10 -12z"/>
<path d="M1375 709 c-4 -6 -3 -15 3 -21 6 -6 11 -4 15 6 7 18 -9 31 -18 15z"/>
<path d="M475 660 c-7 -12 2 -30 16 -30 12 0 12 27 0 35 -5 3 -12 1 -16 -5z"/>
<path d="M1331 656 c-7 -8 -8 -17 -3 -20 6 -3 15 1 21 8 7 8 8 17 3 20 -6 3
-15 -1 -21 -8z"/>
<path d="M525 610 c-4 -6 -3 -16 3 -22 6 -6 12 -6 17 2 4 6 3 16 -3 22 -6 6
-12 6 -17 -2z"/>
<path d="M1284 605 c-9 -22 1 -29 15 -11 8 10 9 16 1 21 -5 3 -13 -1 -16 -10z"/>
<path d="M577 573 c-4 -3 -7 -10 -7 -14 0 -11 29 -19 35 -10 6 11 -20 33 -28
24z"/>
<path d="M1222 559 c2 -6 8 -10 13 -10 5 0 11 4 13 10 2 6 -4 11 -13 11 -9 0
-15 -5 -13 -11z"/>
<path d="M635 530 c-8 -13 15 -24 27 -12 6 6 4 11 -6 15 -8 3 -18 2 -21 -3z"/>
<path d="M1165 529 c-10 -15 1 -23 20 -15 9 3 13 10 10 16 -8 13 -22 13 -30
-1z"/>
<path d="M709 343 c-5 -52 -5 -151 -1 -170 3 -19 11 -23 43 -23 38 0 39 -1 39
-35 l0 -35 125 0 125 0 0 35 c0 33 2 35 35 35 24 0 35 5 35 15 0 8 5 15 10 15
6 0 10 7 10 15 0 8 -4 15 -10 15 -5 0 -10 7 -10 15 0 8 5 15 10 15 6 0 10 7
10 15 0 8 -4 15 -10 15 -5 0 -10 7 -10 15 0 8 5 15 10 15 6 0 10 7 10 15 0 8
-4 15 -10 15 -5 0 -10 7 -10 15 0 13 -29 15 -200 15 -183 0 -200 -1 -201 -17z"/>
</g>
</svg>
